<?xml version="1.0" standalone="no"?>
<!DOCTYPE svg PUBLIC "-//W3C//DTD SVG 20010904//EN"
 "http://www.w3.org/TR/2001/REC-SVG-20010904/DTD/svg10.dtd">
<svg version="1.0" xmlns="http://www.w3.org/2000/svg"
 width="360.000000pt" height="360.000000pt" viewBox="0 0 360.000000 360.000000"
 preserveAspectRatio="xMidYMid meet">

<g transform="translate(0.000000,360.000000) scale(0.100000,-0.100000)"
fill="#000000" stroke="none">
<path d="M465 3250 c-18 -20 -16 -52 105 -1263 80 -806 128 -1250 136 -1264
10 -17 130 -60 571 -207 307 -102 569 -186 583 -186 14 0 250 85 525 188 432
162 501 191 511 212 6 14 66 582 134 1263 119 1196 122 1238 105 1257 -18 20
-33 20 -1335 20 -1312 0 -1317 0 -1335 -20z m2551 -142 c-3 -24 -56 -549 -117
-1168 -66 -668 -116 -1130 -123 -1136 -13 -14 -892 -344 -915 -344 -9 0 -248
77 -531 172 l-516 172 -113 1135 c-63 625 -116 1153 -119 1174 l-5 37 1223 0
1222 0 -6 -42z"/>
<path d="M957 2642 c-22 -24 -21 -65 1 -85 17 -15 57 -17 365 -17 l347 0 0
-695 c0 -382 -2 -695 -5 -695 -14 0 -291 83 -298 89 -4 4 -20 69 -35 146 -24
119 -31 141 -53 157 -29 22 -71 12 -88 -21 -13 -24 51 -358 73 -379 14 -14
445 -141 479 -142 9 0 26 9 37 20 20 20 20 33 20 813 0 756 -1 795 -18 810
-17 15 -60 17 -414 17 -370 0 -396 -1 -411 -18z"/>
<path d="M1940 2640 c-19 -19 -20 -33 -20 -410 0 -377 1 -391 20 -410 19 -19
33 -20 241 -20 l221 0 -5 -22 c-3 -13 -27 -140 -53 -284 l-47 -260 -174 -58
c-136 -45 -177 -63 -189 -82 -21 -31 -11 -71 22 -86 22 -11 52 -3 229 55 112
38 209 74 215 82 6 8 41 174 76 370 61 334 64 358 49 381 l-15 24 -230 0 -230
0 0 310 0 310 230 0 c203 0 230 -2 230 -16 0 -9 -9 -52 -21 -97 -20 -79 -20
-81 -1 -106 22 -30 59 -38 85 -19 12 9 30 59 52 148 40 157 41 171 17 193 -17
15 -56 17 -350 17 -319 0 -333 -1 -352 -20z"/>
</g>
</svg>
