<svg width="368" height="298" viewBox="0 0 368 298" fill="none" xmlns="http://www.w3.org/2000/svg">
<g clip-path="url(#clip0_9427_16511)">
<path d="M314.499 215.89V251.732C314.499 253.438 313.825 255.071 312.619 256.274L290.738 278.154C289.533 279.356 287.899 280.034 286.197 280.034H250.355C230.357 290.243 207.723 296 183.733 296C159.743 296 137.101 290.243 117.111 280.034H81.2652C79.5591 280.034 77.9295 279.36 76.7272 278.154L54.8431 256.274C53.6408 255.071 52.9632 253.438 52.9632 251.732V215.89C42.7544 195.897 37.0001 173.252 37.0001 149.269C37.0001 125.287 42.7544 102.639 52.9632 82.6485V46.7997C52.9632 45.1006 53.6408 43.4675 54.8431 42.2617L76.7272 20.3814C77.9295 19.1791 79.5626 18.5015 81.2652 18.5015H117.111C137.101 8.29278 159.743 2.53516 183.729 2.53516C207.716 2.53516 230.354 8.29278 250.351 18.5015H286.193C287.896 18.5015 289.529 19.1756 290.735 20.3814L312.615 42.2617C313.818 43.464 314.495 45.0971 314.495 46.7997V82.6485C324.704 102.639 330.465 125.28 330.465 149.266C330.465 173.252 324.704 195.897 314.499 215.887" fill="#B880FF"/>
<path d="M314.499 215.89V251.732C314.499 253.438 313.825 255.071 312.619 256.274L290.738 278.154C289.533 279.356 287.899 280.034 286.197 280.034H250.355C230.357 290.243 207.723 296 183.733 296C159.743 296 137.101 290.243 117.111 280.034H81.2652C79.5591 280.034 77.9295 279.36 76.7272 278.154L54.8431 256.274C53.6408 255.071 52.9632 253.438 52.9632 251.732V215.89C42.7544 195.897 37.0001 173.252 37.0001 149.269C37.0001 125.287 42.7544 102.639 52.9632 82.6485V46.7997C52.9632 45.1006 53.6408 43.4675 54.8431 42.2617L76.7272 20.3814C77.9295 19.1791 79.5626 18.5015 81.2652 18.5015H117.111C137.101 8.29278 159.743 2.53516 183.729 2.53516C207.716 2.53516 230.354 8.29278 250.351 18.5015H286.193C287.896 18.5015 289.529 19.1756 290.735 20.3814L312.615 42.2617C313.818 43.464 314.495 45.0971 314.495 46.7997V82.6485C324.704 102.639 330.465 125.28 330.465 149.266C330.465 173.252 324.704 195.897 314.499 215.887" stroke="white" stroke-width="2"/>
<mask id="mask0_9427_16511" style="mask-type:luminance" maskUnits="userSpaceOnUse" x="37" y="-2" width="294" height="298">
<path d="M314.508 215.776V251.598C314.508 253.303 313.834 254.936 312.629 256.137L290.76 278.006C289.555 279.207 287.923 279.885 286.221 279.885H250.398C230.412 290.088 207.79 295.843 183.813 295.843C159.837 295.843 137.207 290.088 117.228 279.885H81.4019C79.6967 279.885 78.068 279.211 76.8664 278.006L54.9942 256.137C53.7926 254.936 53.1154 253.303 53.1154 251.598V215.776C42.9122 195.793 37.1611 173.16 37.1611 149.19C37.1611 125.221 42.9122 102.585 53.1154 82.6051V46.7756C53.1154 45.0774 53.7926 43.4451 54.9942 42.24L76.8664 20.3714C78.068 19.1698 79.7002 18.4926 81.4019 18.4926L117.785 2.53477C137.765 -7.66851 159.837 2.53478 183.81 2.53478C207.783 2.53478 230.409 8.28932 250.395 18.4926H286.218C287.919 18.4926 289.552 19.1663 290.757 20.3714L312.625 42.24C313.827 43.4417 314.504 45.0739 314.504 46.7756V82.6051C324.707 102.585 330.465 125.214 330.465 149.187C330.465 173.16 324.707 195.793 314.508 215.772" fill="white"/>
</mask>
<g mask="url(#mask0_9427_16511)">
<path d="M137.533 83.0005C137.533 83.0005 116.635 85.3819 105.002 66.6016C86.4896 36.7165 115.979 9.60857 115.979 9.60857C115.979 9.60857 114.851 18.5298 121.269 24.9486C126.161 29.8397 132.352 29.2535 132.352 29.2535C132.352 29.2535 130.502 23.8349 132.264 15.7197C133.638 9.38508 140.09 3.16406 140.09 3.16406C140.09 3.16406 135.913 17.5186 180.091 17.7677C224.045 18.0168 250.072 48.8289 253.68 81.4691C258.524 125.287 236.926 147.695 226.371 161.694C215.816 175.693 210.994 165.958 210.994 165.958L137.533 83.0005Z" fill="black" stroke="black" stroke-width="1.2" stroke-linecap="round" stroke-linejoin="round"/>
<path d="M129.333 105.482C126.424 139.335 137.533 187.996 156.837 186.674C176.141 185.351 217.402 167.102 224.543 145.416C231.684 123.731 239.531 126.284 241.367 113.945C242.404 106.995 239.176 103.188 235.073 102.243C230.83 101.265 225.866 108.391 225.866 108.391C225.866 108.391 223.7 81.0519 200.74 64.9278C188.928 56.6331 169.004 54.3506 158.358 58.3441C139.914 65.2649 131.239 83.2905 129.33 105.482H129.333Z" fill="#B880FF"/>
<mask id="mask1_9427_16511" style="mask-type:luminance" maskUnits="userSpaceOnUse" x="128" y="56" width="114" height="131">
<path d="M129.333 105.482C126.424 139.335 137.533 187.996 156.837 186.674C176.141 185.351 217.402 167.102 224.543 145.416C231.684 123.731 239.531 126.284 241.367 113.945C242.404 106.995 239.176 103.188 235.073 102.243C230.83 101.265 225.866 108.391 225.866 108.391C225.866 108.391 223.7 81.0519 200.74 64.9278C188.928 56.6331 169.004 54.3506 158.358 58.3441C139.914 65.2649 131.239 83.2905 129.33 105.482H129.333Z" fill="white"/>
</mask>
<g mask="url(#mask1_9427_16511)">
<path d="M182.872 57.6843C213.831 70.7015 225.862 108.39 225.862 108.39C225.862 108.39 226.514 88.8187 209.921 72.4235C193.332 56.0246 182.868 57.6879 182.868 57.6879L182.872 57.6843Z" fill="white"/>
<path d="M232.087 103.09C237.238 105.615 236.744 111.667 236.744 111.667L241.909 113.279C241.909 113.279 243.547 107.256 238.411 103.856C233.27 100.456 232.087 103.09 232.087 103.09Z" fill="white"/>
</g>
<path d="M129.333 105.482C126.424 139.335 137.533 187.996 156.837 186.674C176.141 185.351 217.402 167.102 224.543 145.416C231.684 123.731 239.531 126.284 241.367 113.945C242.404 106.995 239.176 103.188 235.073 102.243C230.83 101.265 225.866 108.391 225.866 108.391C225.866 108.391 223.7 81.0519 200.74 64.9278C188.928 56.6331 169.004 54.3506 158.358 58.3441C139.914 65.2649 131.239 83.2905 129.33 105.482H129.333Z" stroke="black" stroke-width="1.2" stroke-linecap="round" stroke-linejoin="round"/>
<path d="M175.023 59.1092C147.113 64.8246 139.606 45.7109 139.606 45.7109" stroke="#B880FF" stroke-width="1.2" stroke-linecap="round" stroke-linejoin="round"/>
<path d="M165.168 114.475C165.168 114.475 151.946 99.3983 145.597 105.216C139.251 111.034 153.265 124.257 153.265 124.257" fill="#B880FF"/>
<mask id="mask2_9427_16511" style="mask-type:luminance" maskUnits="userSpaceOnUse" x="143" y="103" width="23" height="22">
<path d="M165.168 114.475C165.168 114.475 151.946 99.3983 145.597 105.216C139.251 111.034 153.265 124.257 153.265 124.257" fill="white"/>
</mask>
<g mask="url(#mask2_9427_16511)">
<path d="M147.451 103.878C154.559 106.465 157.369 114.067 157.369 114.067H165.876C165.876 114.067 161.945 111.026 157.211 107.26C152.478 103.494 147.451 103.878 147.451 103.878Z" fill="white"/>
</g>
<path d="M165.168 114.475C165.168 114.475 151.946 99.3983 145.597 105.216C139.251 111.034 153.265 124.257 153.265 124.257" stroke="black" stroke-width="1.2" stroke-linecap="round" stroke-linejoin="round"/>
<path d="M329.157 247.725C329.157 247.725 326.629 232.146 296.096 206.302C265.606 180.495 233.358 179.359 233.358 179.359C233.358 179.359 226.551 191.541 210.764 211.802C195.152 231.839 186.429 238.628 186.429 238.628C186.429 238.628 169.88 223.086 157.185 207.57C144.49 192.054 143.545 189.585 143.545 189.585L116.631 186.701C116.631 186.701 101.746 182.825 71.9337 211.802C40.1984 242.65 39.9676 258.76 39.9676 258.76L71.6699 283.739L110.989 280.918C110.989 280.918 136.379 300.314 179.047 299.607C221.715 298.903 254.816 281.977 254.816 281.977L298.587 284.091L329.15 247.728L329.157 247.725Z" fill="black" stroke="#B880FF" stroke-width="1.2" stroke-linecap="round" stroke-linejoin="round"/>
<path d="M252.765 184.848C252.765 184.848 237.238 210.739 220.311 232.249C203.385 253.759 186.433 263.948 186.433 263.948C186.433 263.948 170.327 249.176 154.412 230.839C138.5 212.502 124.424 187.533 124.424 187.533" stroke="#B880FF" stroke-width="1.2" stroke-linecap="round" stroke-linejoin="round"/>
<path d="M201.065 252.707L186.432 238.627" stroke="#B880FF" stroke-width="1.2" stroke-linecap="round" stroke-linejoin="round"/>
<path d="M137.445 244.768C120.658 277.69 118.555 285.585 118.555 285.585" stroke="#B880FF" stroke-width="1.2" stroke-linecap="round" stroke-linejoin="round"/>
<path d="M234.197 196.59V207.171" stroke="#B880FF" stroke-width="1.2" stroke-linecap="round" stroke-linejoin="round"/>
<path d="M86.3101 211.799C86.3101 211.799 55.5383 256.06 49.4126 266.198" stroke="#B880FF" stroke-width="1.2" stroke-linecap="round" stroke-linejoin="round"/>
<path d="M231.863 189.804C231.863 188.513 232.909 187.467 234.199 187.467C235.488 187.467 236.534 188.513 236.534 189.804V196.414C236.534 197.705 235.488 198.751 234.199 198.751C232.909 198.751 231.863 197.705 231.863 196.414V189.804Z" fill="#B880FF"/>
<mask id="mask3_9427_16511" style="mask-type:luminance" maskUnits="userSpaceOnUse" x="231" y="187" width="6" height="12">
<path d="M231.863 189.804C231.863 188.513 232.909 187.467 234.199 187.467C235.488 187.467 236.534 188.513 236.534 189.804V196.414C236.534 197.705 235.488 198.751 234.199 198.751C232.909 198.751 231.863 197.705 231.863 196.414V189.804Z" fill="white"/>
</mask>
<g mask="url(#mask3_9427_16511)">
<path d="M236.12 190.207C235.673 195.908 231.859 198.194 231.859 198.194C231.859 198.194 232.691 199.11 234.966 198.436C237.241 197.762 236.12 190.207 236.12 190.207Z" fill="white"/>
</g>
<path d="M231.863 189.804C231.863 188.513 232.909 187.467 234.199 187.467C235.488 187.467 236.534 188.513 236.534 189.804V196.414C236.534 197.705 235.488 198.751 234.199 198.751C232.909 198.751 231.863 197.705 231.863 196.414V189.804Z" stroke="black" stroke-width="1.2" stroke-linecap="round" stroke-linejoin="round"/>
<path d="M317.712 261.342L313.473 252.322L263.851 274.708L266.588 282.541" stroke="#B880FF" stroke-width="1.2" stroke-linecap="round" stroke-linejoin="round"/>
<path d="M259.19 128.489L254.827 188.702C254.827 188.702 242 191.172 214.76 190.113C187.52 189.054 185.22 186.702 185.22 186.702L143.552 124.789L148.373 113.277L151.546 112.094L245.433 115.798L259.187 128.493L259.19 128.489Z" fill="black"/>
<mask id="mask4_9427_16511" style="mask-type:luminance" maskUnits="userSpaceOnUse" x="143" y="112" width="117" height="79">
<path d="M259.19 128.489L254.827 188.702C254.827 188.702 242 191.172 214.76 190.113C187.52 189.054 185.22 186.702 185.22 186.702L143.552 124.789L148.373 113.277L151.546 112.094L245.433 115.798L259.187 128.493L259.19 128.489Z" fill="white"/>
</mask>
<g mask="url(#mask4_9427_16511)">
<path d="M246.167 130.776C245.437 132.457 235.388 131.575 221.019 130.164C206.649 128.753 196.776 126.504 196.776 126.504" stroke="#B880FF" stroke-width="1.2" stroke-linecap="round" stroke-linejoin="round"/>
<path d="M238.033 127.609C250.27 135.065 251.786 148.592 251.786 148.592L259.986 136.956C259.986 136.956 254.651 129.353 248.724 127.697C242.796 126.045 238.033 127.609 238.033 127.609Z" fill="#B880FF"/>
<path d="M227.324 115.823C214.087 117.153 205.704 120.447 205.704 120.447L214.369 114.57H229.174L227.328 115.823H227.324Z" fill="#B880FF"/>
</g>
<path d="M259.19 128.489L254.827 188.702C254.827 188.702 242 191.172 214.76 190.113C187.52 189.054 185.22 186.702 185.22 186.702L143.552 124.789L148.373 113.277L151.546 112.094L245.433 115.798L259.187 128.493L259.19 128.489Z" stroke="black" stroke-width="1.2" stroke-linecap="round" stroke-linejoin="round"/>
<path d="M254.823 188.701C254.823 188.701 241.997 191.764 214.757 190.705C187.517 189.647 185.216 186.697 185.216 186.697" fill="black"/>
<path d="M254.823 188.701C254.823 188.701 241.997 191.764 214.757 190.705C187.517 189.647 185.216 186.697 185.216 186.697" stroke="#B880FF" stroke-width="1.2" stroke-linecap="round" stroke-linejoin="round"/>
<path d="M242.253 128.422C242.253 128.422 242.261 129.115 240.477 129.1C238.692 129.086 227.815 127.844 223.132 127.378C218.483 126.917 218.641 125.649 219.121 124.063C219.52 122.74 222.627 117.849 224.477 116.658C226.327 115.467 233.468 116.167 233.468 116.167L242.792 126.048L242.257 128.43L242.253 128.422Z" fill="#B880FF" stroke="black" stroke-width="1.2" stroke-linecap="round" stroke-linejoin="round"/>
<path d="M231.083 125.353C228.241 124.988 226.158 122.979 226.429 120.866C226.701 118.753 229.225 117.335 232.066 117.7C234.908 118.065 236.992 120.074 236.72 122.188C236.449 124.301 233.925 125.718 231.083 125.353Z" fill="#B880FF" stroke="black" stroke-width="1.2" stroke-linecap="round" stroke-linejoin="round"/>
<path d="M302.628 224.032C302.628 224.032 292.249 195.755 280.964 162.785C269.68 129.815 267.211 123.642 257.337 119.41C247.463 115.179 231.771 107.243 228.598 110.244C225.426 113.241 233.145 122.598 240.282 127.181C247.419 131.765 250.006 132.512 251.592 135.157C253.178 137.802 256.106 145.683 256.106 145.683C256.106 145.683 246.298 174.909 250.889 179.173C251.533 179.774 250.577 180.375 250.577 180.375C250.577 180.375 242.356 177.242 232.658 176.363C222.96 175.48 211.28 174.766 210.796 178.679C209.803 186.706 239.498 186.255 242.356 197.697C243.085 200.606 244.979 214.063 247.998 225.732C250.834 236.69 254.831 245.996 254.831 245.996C254.831 245.996 268.98 257.119 286.082 247.597C303.185 238.075 302.635 224.036 302.635 224.036L302.628 224.032Z" fill="#B880FF"/>
<mask id="mask5_9427_16511" style="mask-type:luminance" maskUnits="userSpaceOnUse" x="210" y="109" width="93" height="143">
<path d="M302.628 224.032C302.628 224.032 292.249 195.755 280.964 162.785C269.68 129.815 267.211 123.642 257.337 119.41C247.463 115.179 231.771 107.243 228.598 110.244C225.426 113.241 233.145 122.598 240.282 127.181C247.419 131.765 250.006 132.512 251.592 135.157C253.178 137.802 256.106 145.683 256.106 145.683C256.106 145.683 246.298 174.909 250.889 179.173C251.533 179.774 250.577 180.375 250.577 180.375C250.577 180.375 242.356 177.242 232.658 176.363C222.96 175.48 211.28 174.766 210.796 178.679C209.803 186.706 239.498 186.255 242.356 197.697C243.085 200.606 244.979 214.063 247.998 225.732C250.834 236.69 254.831 245.996 254.831 245.996C254.831 245.996 268.98 257.119 286.082 247.597C303.185 238.075 302.635 224.036 302.635 224.036L302.628 224.032Z" fill="white"/>
</mask>
<g mask="url(#mask5_9427_16511)">
<path d="M227.865 112.093C246.935 117.296 258.219 123.323 264.389 129.815C270.558 136.307 300.813 219.056 300.813 219.056C300.813 219.056 275.834 139.425 266.319 126.507C256.805 113.592 231.862 108.921 230.228 109.58C228.594 110.24 227.861 112.093 227.861 112.093H227.865Z" fill="white"/>
<path d="M250.107 180.768C221.897 176.756 211.151 180.515 211.151 180.515C211.151 180.515 210.173 179.313 211.869 177.108C213.565 174.902 227.044 175.078 234.606 176.573C242.168 178.067 250.107 180.764 250.107 180.764V180.768Z" fill="white"/>
</g>
<path d="M302.628 224.032C302.628 224.032 292.249 195.755 280.964 162.785C269.68 129.815 267.211 123.642 257.337 119.41C247.463 115.179 231.771 107.243 228.598 110.244C225.426 113.241 233.145 122.598 240.282 127.181C247.419 131.765 250.006 132.512 251.592 135.157C253.178 137.802 256.106 145.683 256.106 145.683C256.106 145.683 246.298 174.909 250.889 179.173C251.533 179.774 250.577 180.375 250.577 180.375C250.577 180.375 242.356 177.242 232.658 176.363C222.96 175.48 211.28 174.766 210.796 178.679C209.803 186.706 239.498 186.255 242.356 197.697C243.085 200.606 244.979 214.063 247.998 225.732C250.834 236.69 254.831 245.996 254.831 245.996C254.831 245.996 268.98 257.119 286.082 247.597C303.185 238.075 302.635 224.036 302.635 224.036L302.628 224.032Z" stroke="black" stroke-width="1.2" stroke-linecap="round" stroke-linejoin="round"/>
<path d="M214.369 114.572C214.369 114.572 213.171 111.832 206.957 105.483C200.743 99.137 196.446 96.8875 196.446 96.8875C196.446 96.8875 192.939 96.3306 181.699 96.5944C170.459 96.8582 167.418 98.2101 167.418 98.2101C167.418 98.2101 164.817 100.57 162.747 105.538C160.677 110.506 160.277 114.572 160.277 114.572L162.747 119.236L196.775 126.509L214.369 114.572Z" fill="black"/>
<mask id="mask6_9427_16511" style="mask-type:luminance" maskUnits="userSpaceOnUse" x="160" y="96" width="55" height="31">
<path d="M214.369 114.572C214.369 114.572 213.171 111.832 206.957 105.483C200.743 99.137 196.446 96.8875 196.446 96.8875C196.446 96.8875 192.939 96.3306 181.699 96.5944C170.459 96.8582 167.418 98.2101 167.418 98.2101C167.418 98.2101 164.817 100.57 162.747 105.538C160.677 110.506 160.277 114.572 160.277 114.572L162.747 119.236L196.775 126.509L214.369 114.572Z" fill="white"/>
</mask>
<g mask="url(#mask6_9427_16511)">
<path d="M214.369 114.572L202.887 122.361C202.887 122.361 206.913 119.31 203.736 111.517C200.564 103.72 195.581 98.1624 193.815 98.3383C192.053 98.5142 185.557 102.9 185.557 102.9C185.557 105.014 189.364 116.309 193.929 120.211C196.867 122.724 201.252 123.464 201.252 123.464L196.768 126.505L188.591 124.758C188.591 124.758 190.375 123.406 188.591 118.115C186.806 112.825 185.751 108.476 180.637 106.362C175.522 104.248 169.704 103.087 169.704 103.087L167.411 98.2064C167.411 98.2064 168.209 96.195 183.853 96.5174C199.498 96.8398 196.435 96.8838 196.435 96.8838C196.435 96.8838 203.187 100.896 208.573 106.362C213.958 111.828 214.361 114.569 214.361 114.569L214.369 114.572Z" fill="#B880FF"/>
<path d="M169.708 103.09C162.743 109.582 161.724 117.309 161.724 117.309" stroke="#B880FF" stroke-width="1.2" stroke-linecap="round" stroke-linejoin="round"/>
<path d="M190.892 118.045C174.691 118.705 161.919 116.309 161.919 116.309" stroke="#B880FF" stroke-width="1.2" stroke-linecap="round" stroke-linejoin="round"/>
<path d="M185.217 103.09L190.892 118.045" stroke="#B880FF" stroke-width="1.2" stroke-linecap="round" stroke-linejoin="round"/>
<path d="M196.442 96.8867L185.217 103.089H169.708L167.418 98.2093" stroke="black" stroke-width="1.2" stroke-linecap="round" stroke-linejoin="round"/>
</g>
<path d="M214.369 114.572C214.369 114.572 213.171 111.832 206.957 105.483C200.743 99.137 196.446 96.8875 196.446 96.8875C196.446 96.8875 192.939 96.3306 181.699 96.5944C170.459 96.8582 167.418 98.2101 167.418 98.2101C167.418 98.2101 164.817 100.57 162.747 105.538C160.677 110.506 160.277 114.572 160.277 114.572L162.747 119.236L196.775 126.509L214.369 114.572Z" stroke="black" stroke-width="1.2" stroke-linecap="round" stroke-linejoin="round"/>
<path d="M179.215 186.685C161.417 185.88 147.648 170.665 148.46 152.701C149.273 134.737 164.36 120.827 182.158 121.632C199.956 122.437 213.726 137.652 212.913 155.616C212.1 173.58 197.013 187.49 179.215 186.685Z" fill="#B880FF"/>
<mask id="mask7_9427_16511" style="mask-type:luminance" maskUnits="userSpaceOnUse" x="148" y="121" width="65" height="66">
<path d="M179.215 186.685C161.417 185.88 147.648 170.665 148.46 152.701C149.273 134.737 164.36 120.827 182.158 121.632C199.956 122.437 213.726 137.652 212.913 155.616C212.1 173.58 197.013 187.49 179.215 186.685Z" fill="white"/>
</mask>
<g mask="url(#mask7_9427_16511)">
<path d="M212.961 154.455L206.846 157.452C206.846 157.452 206.546 163.039 202.728 168.755C198.911 174.47 197.167 175.829 197.167 175.829L200.739 181.222C200.739 181.222 206.407 175.302 209.03 170.389C214.101 160.889 212.961 154.455 212.961 154.455Z" fill="black"/>
<path d="M213.317 152.061L207.089 155.502V151.296L212.379 147.943C212.907 145.811 213.317 152.061 213.317 152.061Z" fill="black"/>
</g>
<path d="M179.215 186.685C161.417 185.88 147.648 170.665 148.46 152.701C149.273 134.737 164.36 120.827 182.158 121.632C199.956 122.437 213.726 137.652 212.913 155.616C212.1 173.58 197.013 187.49 179.215 186.685Z" stroke="#B880FF" stroke-width="1.2" stroke-linecap="round" stroke-linejoin="round"/>
<path d="M313.472 252.323C313.472 252.323 313.494 263.933 293.835 272.096C273.028 280.735 263.851 274.708 263.851 274.708L254.823 245.988C254.823 245.988 266.858 253.056 283.254 244.417C300.832 235.155 301.239 223.889 301.239 223.889L313.472 252.323Z" fill="white" stroke="#B880FF" stroke-width="1.2" stroke-linecap="round" stroke-linejoin="round"/>
<path d="M266.463 150.574C266.463 150.574 254.296 138.29 238.56 136.161C222.828 134.032 209.03 139.59 209.027 143.829C209.027 148.72 215.559 149.153 228.342 149.768C241.124 150.384 255.179 162.166 256.941 164.46" fill="#B880FF"/>
<mask id="mask8_9427_16511" style="mask-type:luminance" maskUnits="userSpaceOnUse" x="209" y="135" width="58" height="30">
<path d="M266.463 150.574C266.463 150.574 254.296 138.29 238.56 136.161C222.828 134.032 209.03 139.59 209.027 143.829C209.027 148.72 215.559 149.153 228.342 149.768C241.124 150.384 255.179 162.166 256.941 164.46" fill="white"/>
</mask>
<g mask="url(#mask8_9427_16511)">
<path d="M265.943 150.075C249.225 143.213 245.184 140.04 232.086 139.777C218.988 139.513 209.027 143.832 209.027 143.832C209.027 143.832 210.247 134.277 236.186 135.9C254.823 137.066 265.943 150.079 265.943 150.079V150.075Z" fill="white"/>
</g>
<path d="M266.463 150.574C266.463 150.574 254.296 138.29 238.56 136.161C222.828 134.032 209.03 139.59 209.027 143.829C209.027 148.72 215.559 149.153 228.342 149.768C241.124 150.384 255.179 162.166 256.941 164.46" stroke="black" stroke-width="1.2" stroke-linecap="round" stroke-linejoin="round"/>
<path d="M251.09 179.355C251.09 179.355 243.275 170.716 230.097 169.745C223.986 169.295 207.704 170.097 207.748 164.059C207.785 158.901 222.073 154.937 234.724 155.728C248.346 156.582 259.187 163.066 259.187 163.066" fill="#B880FF"/>
<mask id="mask9_9427_16511" style="mask-type:luminance" maskUnits="userSpaceOnUse" x="207" y="155" width="53" height="25">
<path d="M251.09 179.355C251.09 179.355 243.275 170.716 230.097 169.745C223.986 169.295 207.704 170.097 207.748 164.059C207.785 158.901 222.073 154.937 234.724 155.728C248.346 156.582 259.187 163.066 259.187 163.066" fill="white"/>
</mask>
<g mask="url(#mask9_9427_16511)">
<path d="M259.191 163.07C245.793 159.344 239.213 157.845 228.133 159.168C217.054 160.491 208.441 165.14 208.441 165.14C208.441 165.14 204.389 160.982 213.922 158.743C223.455 156.501 229.181 154.581 237.751 155.684C246.32 156.787 259.191 163.07 259.191 163.07Z" fill="white"/>
</g>
<path d="M251.09 179.355C251.09 179.355 243.275 170.716 230.097 169.745C223.986 169.295 207.704 170.097 207.748 164.059C207.785 158.901 222.073 154.937 234.724 155.728C248.346 156.582 259.187 163.066 259.187 163.066" stroke="black" stroke-width="1.2" stroke-linecap="round" stroke-linejoin="round"/>
<path d="M152.1 220.108L164.377 202.987C164.377 202.987 119.284 182.089 114.261 183.5C109.238 184.911 103.592 188.702 103.592 188.702C103.592 188.702 100.947 198.049 113.993 206.6C127.04 215.151 145.729 221.409 145.729 221.409L152.1 220.112V220.108Z" fill="#B880FF" stroke="black" stroke-width="1.2" stroke-linecap="round" stroke-linejoin="round"/>
<path d="M151.547 218.674L137.441 244.767C137.441 244.767 125.274 247.237 106.234 234.542C87.1933 221.847 85.552 212.889 85.552 212.889L103.589 188.701C103.589 188.701 107.113 200.161 127.681 211.797C144.461 221.29 151.547 218.674 151.547 218.674Z" fill="white" stroke="#B880FF" stroke-width="1.2" stroke-linecap="round" stroke-linejoin="round"/>
<path d="M209.925 125.228C208.415 125.228 207.191 124.268 207.191 123.085C207.191 121.901 208.415 120.941 209.925 120.941C211.434 120.941 212.658 121.901 212.658 123.085C212.658 124.268 211.434 125.228 209.925 125.228Z" fill="#B880FF" stroke="black" stroke-width="1.2" stroke-linecap="round" stroke-linejoin="round"/>
<path d="M216.387 120.449C214.878 120.449 213.654 119.489 213.654 118.305C213.654 117.122 214.878 116.162 216.387 116.162C217.897 116.162 219.121 117.122 219.121 118.305C219.121 119.489 217.897 120.449 216.387 120.449Z" fill="#B880FF" stroke="black" stroke-width="1.2" stroke-linecap="round" stroke-linejoin="round"/>
<path d="M229.54 117.857C231.273 119.916 231.859 121.836 231.222 122.906C230.482 124.144 228.342 123.8 228.342 123.8C228.342 123.8 230.852 127.039 234.728 124.782C235.812 124.148 235.834 123.782 235.834 123.782L229.544 117.861L229.54 117.857Z" fill="black"/>
<path d="M238.231 125.646C240.678 128.753 231.581 128.006 231.581 128.006C231.581 128.006 239.44 129.204 240.48 129.101C241.521 128.999 241.913 128.849 241.913 128.849L238.231 125.646Z" fill="black"/>
<path d="M266.785 264.511C265.761 261.798 266.817 258.887 269.143 258.009C271.47 257.13 274.186 258.618 275.21 261.33C276.234 264.043 275.178 266.954 272.851 267.832C270.525 268.711 267.809 267.223 266.785 264.511Z" fill="#B880FF"/>
<path d="M173.518 184.23C155.72 183.425 141.934 168.58 142.726 151.073C143.518 133.566 158.588 120.026 176.386 120.831C194.184 121.636 207.97 136.481 207.178 153.988C206.386 171.495 191.316 185.035 173.518 184.23Z" fill="white"/>
<mask id="mask10_9427_16511" style="mask-type:luminance" maskUnits="userSpaceOnUse" x="142" y="120" width="66" height="65">
<path d="M173.518 184.23C155.72 183.425 141.934 168.58 142.726 151.073C143.518 133.566 158.588 120.026 176.386 120.831C194.184 121.636 207.97 136.481 207.178 153.988C206.386 171.495 191.316 185.035 173.518 184.23Z" fill="white"/>
</mask>
<g mask="url(#mask10_9427_16511)">
<path d="M203.22 137.271C202.916 141.005 201.37 141.653 201.37 141.653L196.951 158.983L197.164 176.653C197.164 176.653 203.795 169.032 206.473 159.404C209.924 147.002 203.22 137.271 203.22 137.271Z" fill="#B880FF"/>
</g>
<path d="M173.518 184.23C155.72 183.425 141.934 168.58 142.726 151.073C143.518 133.566 158.588 120.026 176.386 120.831C194.184 121.636 207.97 136.481 207.178 153.988C206.386 171.495 191.316 185.035 173.518 184.23Z" stroke="black" stroke-width="1.2" stroke-linecap="round" stroke-linejoin="round"/>
<path d="M142.706 151.718C143.443 135.407 154.386 122.262 168.279 119.668L168.356 118.305L176.783 119.422V119.433C192.419 121.423 204.143 136.598 203.337 154.455C202.597 170.835 190.87 182.629 175.936 184.611L164.582 186.032L164.685 184.208C150.686 181.193 141.948 168.582 142.706 151.714V151.718Z" fill="#B880FF" stroke="black" stroke-width="1.2" stroke-linecap="round" stroke-linejoin="round"/>
<path d="M129.651 234.985C127.265 233.722 126.526 230.442 127.999 227.66C129.472 224.877 132.6 223.645 134.986 224.908C137.371 226.171 138.111 229.451 136.638 232.233C135.164 235.016 132.036 236.248 129.651 234.985Z" fill="#B880FF"/>
<path d="M254.989 214.279L249.951 214.818" stroke="black" stroke-width="1.2" stroke-linecap="round" stroke-linejoin="round"/>
<path d="M213.746 234.676C213.544 232.803 213.577 230.895 213.859 229.004L210.371 223.999C210.958 222.197 211.738 220.427 212.731 218.727C213.35 217.665 214.035 216.672 214.772 215.73L211.449 214.272L216.486 213.734L222.502 214.485C224.026 213.349 225.682 212.426 227.415 211.726L229.98 206.135C233.834 205.296 237.875 205.329 241.795 206.304L244.136 211.96C244.924 212.308 245.701 212.7 246.456 213.151C247.331 213.671 248.152 214.243 248.929 214.862L254.988 214.283C257.681 217.313 259.601 220.896 260.678 224.725L257 229.62C257.205 231.492 257.168 233.401 256.886 235.291L260.374 240.296C259.788 242.098 259.008 243.868 258.018 245.568C256.941 247.418 255.67 249.081 254.263 250.561L249.225 251.1L249.691 249.99L248.247 249.81C246.723 250.95 245.067 251.869 243.33 252.569L240.769 258.16C236.915 258.999 232.87 258.97 228.954 257.992L226.613 252.335C225.829 251.987 225.052 251.595 224.294 251.144C223.418 250.624 222.597 250.052 221.821 249.433L215.764 250.012C213.072 246.982 211.152 243.399 210.075 239.57L213.753 234.676H213.746ZM229.602 241.878C234.706 244.923 241.385 243.274 244.51 238.196C244.866 237.621 245.159 237.028 245.393 236.419C247.229 231.675 245.455 226.194 240.931 223.494C236.38 220.779 230.584 221.798 227.162 225.637C226.745 226.11 226.36 226.623 226.019 227.176C222.894 232.254 224.495 238.834 229.599 241.875L229.602 241.878Z" fill="#B880FF" stroke="black" stroke-width="1.2" stroke-linecap="round" stroke-linejoin="round"/>
<path d="M251.849 235.828L255.337 240.833C254.75 242.635 253.97 244.405 252.981 246.105C251.904 247.955 250.632 249.618 249.225 251.099L243.21 250.348C241.685 251.487 240.029 252.407 238.293 253.106L235.732 258.697C231.878 259.536 227.833 259.507 223.916 258.529L221.575 252.872C220.791 252.524 220.014 252.132 219.256 251.681C218.38 251.161 217.56 250.589 216.783 249.97L210.727 250.549C208.034 247.519 206.114 243.936 205.037 240.107L208.716 235.213C208.514 233.34 208.547 231.432 208.829 229.541L205.341 224.537C205.927 222.734 206.708 220.964 207.701 219.264C208.778 217.414 210.045 215.751 211.456 214.271L217.472 215.022C218.996 213.886 220.652 212.963 222.385 212.263L224.95 206.672C228.804 205.833 232.845 205.866 236.765 206.841L239.106 212.497C239.894 212.846 240.671 213.238 241.425 213.688C242.301 214.208 243.122 214.78 243.898 215.399L249.958 214.82C252.651 217.85 254.571 221.433 255.648 225.262L251.97 230.157C252.175 232.029 252.138 233.938 251.856 235.828H251.849ZM235.897 224.035C231.346 221.32 225.55 222.338 222.128 226.178C221.711 226.65 221.326 227.163 220.985 227.717C217.86 232.795 219.461 239.375 224.565 242.416C229.668 245.46 236.347 243.811 239.473 238.733C239.828 238.158 240.121 237.565 240.356 236.957C242.191 232.212 240.418 226.731 235.893 224.031L235.897 224.035Z" fill="white" stroke="black" stroke-width="1.2" stroke-linecap="round" stroke-linejoin="round"/>
<path d="M260.371 240.291L255.337 240.833" stroke="black" stroke-width="1.2" stroke-linecap="round" stroke-linejoin="round"/>
<path d="M260.678 224.721L255.641 225.259" stroke="black" stroke-width="1.2" stroke-linecap="round" stroke-linejoin="round"/>
<path d="M241.795 206.303L236.761 206.841" stroke="black" stroke-width="1.2" stroke-linecap="round" stroke-linejoin="round"/>
<path d="M256.887 235.289L251.849 235.828" stroke="black" stroke-width="1.2" stroke-linecap="round" stroke-linejoin="round"/>
<path d="M257 229.615L251.962 230.157" stroke="black" stroke-width="1.2" stroke-linecap="round" stroke-linejoin="round"/>
<path d="M243.327 252.568L238.293 253.107" stroke="black" stroke-width="1.2" stroke-linecap="round" stroke-linejoin="round"/>
<path d="M128.85 150.072C129.696 131.35 143.168 117.285 159.105 116.93L159.164 115.662L166.88 117.857C180.589 121.561 190.247 135.717 189.478 152.809C188.73 169.398 178.23 182.855 164.773 185.995V186.002L164.583 186.039C163.927 186.185 163.264 186.314 162.593 186.409L155.79 187.68L155.845 186.53C139.959 184.764 128.004 168.852 128.854 150.076L128.85 150.072Z" fill="white"/>
<mask id="mask11_9427_16511" style="mask-type:luminance" maskUnits="userSpaceOnUse" x="128" y="115" width="62" height="73">
<path d="M128.85 150.072C129.696 131.35 143.168 117.285 159.105 116.93L159.164 115.662L166.88 117.857C180.589 121.561 190.247 135.717 189.478 152.809C188.73 169.398 178.23 182.855 164.773 185.995V186.002L164.583 186.039C163.927 186.185 163.264 186.314 162.593 186.409L155.79 187.68L155.845 186.53C139.959 184.764 128.004 168.852 128.854 150.076L128.85 150.072Z" fill="white"/>
</mask>
<g mask="url(#mask11_9427_16511)">
<path d="M189.199 145.789C186.986 150.442 183.809 150.977 183.809 150.977L183.476 154.97C183.476 154.97 185.11 152.109 188.22 152.175C191.331 152.241 189.199 145.793 189.199 145.793V145.789Z" fill="#B880FF"/>
</g>
<path d="M128.85 150.072C129.696 131.35 143.168 117.285 159.105 116.93L159.164 115.662L166.88 117.857C180.589 121.561 190.247 135.717 189.478 152.809C188.73 169.398 178.23 182.855 164.773 185.995V186.002L164.583 186.039C163.927 186.185 163.264 186.314 162.593 186.409L155.79 187.68L155.845 186.53C139.959 184.764 128.004 168.852 128.854 150.076L128.85 150.072Z" stroke="black" stroke-width="1.2" stroke-linecap="round" stroke-linejoin="round"/>
<path d="M120.804 149.974C121.522 134.051 130.912 120.913 143.373 116.477L143.549 111.666L159.16 115.652V115.659C173.84 119.268 184.439 134.759 183.626 152.806C182.827 170.513 171.309 184.78 156.764 187.461L140.621 190.927L140.819 185.615C128.502 180.255 120.071 166.138 120.8 149.97L120.804 149.974Z" fill="#B880FF" stroke="black" stroke-width="1.2" stroke-linecap="round" stroke-linejoin="round"/>
<path d="M91.2779 149.395C92.1205 130.725 104.247 115.432 120.247 110.757L120.485 106.471L136.994 109.845V109.856C156.181 113.26 170.338 131.553 169.374 152.92C168.377 174.975 154.899 190.374 132.323 192.228C128.01 192.583 115.656 193.067 115.656 193.067L115.818 190.143C100.756 183.797 90.4462 167.728 91.2742 149.395H91.2779Z" fill="white"/>
<mask id="mask12_9427_16511" style="mask-type:luminance" maskUnits="userSpaceOnUse" x="91" y="106" width="79" height="88">
<path d="M91.2779 149.395C92.1205 130.725 104.247 115.432 120.247 110.757L120.485 106.471L136.994 109.845V109.856C156.181 113.26 170.338 131.553 169.374 152.92C168.377 174.975 154.899 190.374 132.323 192.228C128.01 192.583 115.656 193.067 115.656 193.067L115.818 190.143C100.756 183.797 90.4462 167.728 91.2742 149.395H91.2779Z" fill="white"/>
</mask>
<g mask="url(#mask12_9427_16511)">
<path d="M168.514 160.375C154.958 176.525 145.993 177.32 145.993 177.32L120.757 192.85L140.622 190.927L161.289 177.32C161.289 177.32 164.216 173.264 166.806 166.809C169.397 160.357 168.514 160.375 168.514 160.375Z" fill="#B880FF"/>
</g>
<path d="M91.2779 149.395C92.1205 130.725 104.247 115.432 120.247 110.757L120.485 106.471L136.994 109.845V109.856C156.181 113.26 170.338 131.553 169.374 152.92C168.377 174.975 154.899 190.374 132.323 192.228C128.01 192.583 115.656 193.067 115.656 193.067L115.818 190.143C100.756 183.797 90.4462 167.728 91.2742 149.395H91.2779Z" stroke="black" stroke-width="1.2" stroke-linecap="round" stroke-linejoin="round"/>
<path d="M111.884 193.051C88.4135 191.99 70.2691 171.637 71.3567 147.593C72.4443 123.549 92.3522 104.918 115.822 105.98C139.292 107.042 157.437 127.394 156.349 151.438C155.261 175.482 135.354 194.113 111.884 193.051Z" fill="#B880FF" stroke="black" stroke-width="1.2" stroke-linecap="round" stroke-linejoin="round"/>
<path d="M112.111 188.037C91.3435 187.098 75.2883 169.09 76.2507 147.815C77.2131 126.54 94.8285 110.055 115.596 110.994C136.363 111.934 152.419 129.942 151.456 151.217C150.494 172.492 132.878 188.977 112.111 188.037Z" fill="black"/>
<mask id="mask13_9427_16511" style="mask-type:luminance" maskUnits="userSpaceOnUse" x="76" y="110" width="76" height="79">
<path d="M112.11 188.037C91.3425 187.098 75.2874 169.09 76.2497 147.815C77.2121 126.54 94.8276 110.055 115.595 110.994C136.362 111.934 152.418 129.942 151.455 151.217C150.493 172.492 132.877 188.977 112.11 188.037Z" fill="white"/>
</mask>
<g mask="url(#mask13_9427_16511)">
<path d="M120.987 185.252C139.757 185.252 155.456 170.077 156.331 150.707C156.767 141.075 153.51 131.849 147.165 124.731C140.804 117.601 132.107 113.439 122.673 113.011C103.222 112.128 86.6508 127.614 85.7532 147.519C85.3172 157.151 88.5743 166.377 94.9199 173.495C101.28 180.625 109.978 184.787 119.412 185.215C119.94 185.241 120.467 185.252 120.987 185.252ZM121.097 117.143C121.559 117.143 122.017 117.154 122.482 117.176C130.788 117.55 138.449 121.221 144.054 127.508C149.674 133.81 152.554 141.983 152.169 150.524C151.396 167.659 137.54 181.086 120.984 181.09C120.522 181.09 120.064 181.079 119.599 181.057C111.293 180.683 103.632 177.012 98.0267 170.725C92.4065 164.424 89.5268 156.25 89.9115 147.71C90.6846 130.575 104.541 117.143 121.097 117.143Z" fill="#B880FF"/>
<path d="M124.294 178.094C108.547 177.382 96.374 163.726 97.1037 147.594C97.8335 131.461 111.19 118.961 126.936 119.673C142.683 120.385 154.856 134.041 154.126 150.173C153.397 166.306 140.04 178.806 124.294 178.094Z" stroke="white" stroke-width="1.2" stroke-linecap="round" stroke-linejoin="round"/>
<path d="M125.993 174.451C111.556 173.798 100.37 161.852 101.007 147.769C101.644 133.686 113.863 122.799 128.3 123.452C142.736 124.105 153.923 136.051 153.286 150.134C152.649 164.217 140.429 175.104 125.993 174.451Z" stroke="#B880FF" stroke-width="1.2" stroke-linecap="round" stroke-linejoin="round"/>
<path d="M140.94 141.848C149.326 141.844 139.127 130.74 136.676 132.458C134.225 134.176 137.797 141.848 140.94 141.848Z" fill="#B880FF"/>
<path d="M134.8 141.849C136.643 141.849 134.36 135.309 131.891 135.69C129.422 136.071 130.872 141.849 134.8 141.849Z" fill="#B880FF"/>
<path d="M110.996 148.68C108.435 154.539 110.663 158.085 112.439 160.599C114.158 163.024 107.929 158.877 106.786 152.285C105.185 143.068 112.564 145.097 110.996 148.68Z" fill="#B880FF"/>
</g>
<path d="M112.111 188.037C91.3435 187.098 75.2883 169.09 76.2507 147.815C77.2131 126.54 94.8285 110.055 115.596 110.994C136.363 111.934 152.419 129.942 151.456 151.217C150.494 172.492 132.878 188.977 112.111 188.037Z" stroke="black" stroke-width="1.2" stroke-linecap="round" stroke-linejoin="round"/>
<path d="M314.095 253.641L313.473 254.443L310.692 259.667L314.095 265.647L317.462 261.635L314.095 253.641Z" fill="#B880FF"/>
<path d="M126.706 243.943C126.706 243.943 122.852 254.605 119.943 266.193C117.034 277.782 115.448 283.823 115.448 283.823L118.551 285.589C118.551 285.589 124.252 271.495 127.996 263.804C131.74 256.114 137.243 245.16 137.243 245.16L126.706 243.943Z" fill="#B880FF"/>
<path d="M168.279 119.667L152.62 116.615" stroke="black" stroke-width="1.2" stroke-linecap="round" stroke-linejoin="round"/>
<path d="M173.533 124.203L158.288 121.719" stroke="black" stroke-width="1.2" stroke-linecap="round" stroke-linejoin="round"/>
<path d="M177.655 129.511L162.564 127.258" stroke="black" stroke-width="1.2" stroke-linecap="round" stroke-linejoin="round"/>
<path d="M181.127 136.53L166.377 134.705" stroke="black" stroke-width="1.2" stroke-linecap="round" stroke-linejoin="round"/>
<path d="M183.128 144.111L168.898 142.891" stroke="black" stroke-width="1.2" stroke-linecap="round" stroke-linejoin="round"/>
<path d="M183.667 151.508L169.418 150.441" stroke="black" stroke-width="1.2" stroke-linecap="round" stroke-linejoin="round"/>
<path d="M181.065 158.198L168.982 157.443" stroke="black" stroke-width="1.2" stroke-linecap="round" stroke-linejoin="round"/>
<path d="M167.824 163.455L177.83 164.243" stroke="black" stroke-width="1.2" stroke-linecap="round" stroke-linejoin="round"/>
<path d="M165.634 169.826L175.174 170.215" stroke="black" stroke-width="1.2" stroke-linecap="round" stroke-linejoin="round"/>
<path d="M163.417 174.143L168.982 174.403" stroke="black" stroke-width="1.2" stroke-linecap="round" stroke-linejoin="round"/>
<path d="M188.385 123.706L173.833 120.822" stroke="black" stroke-width="1.2" stroke-linecap="round" stroke-linejoin="round"/>
<path d="M193.009 127.375L179.406 125.158" stroke="black" stroke-width="1.2" stroke-linecap="round" stroke-linejoin="round"/>
<path d="M197.263 132.438L183.674 130.408" stroke="black" stroke-width="1.2" stroke-linecap="round" stroke-linejoin="round"/>
<path d="M200.736 138.957L187.121 137.271" stroke="black" stroke-width="1.2" stroke-linecap="round" stroke-linejoin="round"/>
<path d="M202.729 145.788L189.034 144.615" stroke="black" stroke-width="1.2" stroke-linecap="round" stroke-linejoin="round"/>
<path d="M189.503 152.061L203.319 153.372" stroke="black" stroke-width="1.2" stroke-linecap="round" stroke-linejoin="round"/>
<path d="M202.729 159.546L198.138 159.26" stroke="black" stroke-width="1.2" stroke-linecap="round" stroke-linejoin="round"/>
<path d="M199.116 165.908L200.736 166.036" stroke="black" stroke-width="1.2" stroke-linecap="round" stroke-linejoin="round"/>
<path d="M194.131 177.329C194.131 177.329 197.567 173.009 200.037 174.947C202.506 176.886 200.388 189.492 192.368 196.988C184.345 204.481 179.322 203.426 176.677 201.88C174.031 200.337 194.131 177.329 194.131 177.329Z" fill="#B880FF"/>
<mask id="mask14_9427_16511" style="mask-type:luminance" maskUnits="userSpaceOnUse" x="176" y="174" width="26" height="29">
<path d="M194.131 177.329C194.131 177.329 197.567 173.009 200.037 174.947C202.506 176.886 200.388 189.492 192.368 196.988C184.345 204.481 179.322 203.426 176.677 201.88C174.031 200.337 194.131 177.329 194.131 177.329Z" fill="white"/>
</mask>
<g mask="url(#mask14_9427_16511)">
<path d="M196.376 176.62C198.226 186.274 191.419 197.837 191.419 197.837C191.419 197.837 197.094 194.924 199.842 184.845C202.59 174.766 198.123 174.129 198.123 174.129L196.372 176.62H196.376Z" fill="white"/>
</g>
<path d="M194.131 177.329C194.131 177.329 197.567 173.009 200.037 174.947C202.506 176.886 200.388 189.492 192.368 196.988C184.345 204.481 179.322 203.426 176.677 201.88C174.031 200.337 194.131 177.329 194.131 177.329Z" stroke="black" stroke-width="1.2" stroke-linecap="round" stroke-linejoin="round"/>
<path d="M190.514 161.461C190.514 161.461 192.364 157.493 194.57 157.757C196.775 158.021 199.417 158.284 198.626 168.953C197.831 179.622 191.031 192.657 183.11 200.073C175.529 207.17 169.004 205.891 165.744 204.744C162.483 203.597 190.518 161.457 190.518 161.457L190.514 161.461Z" fill="#B880FF"/>
<mask id="mask15_9427_16511" style="mask-type:luminance" maskUnits="userSpaceOnUse" x="165" y="157" width="34" height="49">
<path d="M190.514 161.461C190.514 161.461 192.364 157.493 194.57 157.757C196.775 158.021 199.417 158.284 198.626 168.953C197.831 179.622 191.031 192.657 183.11 200.073C175.529 207.17 169.004 205.891 165.744 204.744C162.483 203.597 190.518 161.457 190.518 161.457L190.514 161.461Z" fill="white"/>
</mask>
<g mask="url(#mask15_9427_16511)">
<path d="M191.617 160.515C196.508 169.612 192.116 182.813 189.522 188.814C186.928 194.815 182.125 200.952 182.125 200.952C182.125 200.952 189.034 197.251 196.076 179.929C203.121 162.607 197.494 158.438 196.076 157.745C194.658 157.053 193.75 157.745 193.75 157.745L191.617 160.515Z" fill="white"/>
</g>
<path d="M190.514 161.461C190.514 161.461 192.364 157.493 194.57 157.757C196.775 158.021 199.417 158.284 198.626 168.953C197.831 179.622 191.031 192.657 183.11 200.073C175.529 207.17 169.004 205.891 165.744 204.744C162.483 203.597 190.518 161.457 190.518 161.457L190.514 161.461Z" stroke="black" stroke-width="1.2" stroke-linecap="round" stroke-linejoin="round"/>
<path d="M142.658 204.833C150.327 209.86 158.13 210.461 167.004 205.134C175.877 199.807 182.754 191.256 188.221 176.447C193.687 161.638 193.874 151.753 188.221 152.171C183.106 152.548 178.962 160.931 173.939 173.186C168.913 185.441 142.658 204.833 142.658 204.833Z" fill="#B880FF"/>
<mask id="mask16_9427_16511" style="mask-type:luminance" maskUnits="userSpaceOnUse" x="142" y="152" width="51" height="57">
<path d="M142.658 204.833C150.327 209.86 158.13 210.461 167.004 205.134C175.877 199.807 182.754 191.256 188.221 176.447C193.687 161.638 193.874 151.753 188.221 152.171C183.106 152.548 178.962 160.931 173.939 173.186C168.913 185.441 142.658 204.833 142.658 204.833Z" fill="white"/>
</mask>
<g mask="url(#mask16_9427_16511)">
<path d="M185.216 153.355C189.235 161.284 187.03 173.128 180.699 186.728C175.101 198.753 167.004 205.139 167.004 205.139C167.004 205.139 178.541 201.02 187.59 178.111C196.64 155.202 191.445 152.579 188.818 152.172C186.191 151.765 185.216 153.359 185.216 153.359V153.355Z" fill="white"/>
</g>
<path d="M142.658 204.833C150.327 209.86 158.13 210.461 167.004 205.134C175.877 199.807 182.754 191.256 188.221 176.447C193.687 161.638 193.874 151.753 188.221 152.171C183.106 152.548 178.962 160.931 173.939 173.186C168.913 185.441 142.658 204.833 142.658 204.833Z" stroke="black" stroke-width="1.2" stroke-linecap="round" stroke-linejoin="round"/>
<path d="M125.285 192.641C125.285 192.641 126.6 200.779 133.033 205.098C139.471 209.418 149.553 206.597 159.163 197.694C168.773 188.791 180.442 177.899 173.36 174.447C167.15 171.421 138.394 191.788 138.394 191.788L125.285 192.641Z" fill="#B880FF"/>
<mask id="mask17_9427_16511" style="mask-type:luminance" maskUnits="userSpaceOnUse" x="125" y="174" width="51" height="34">
<path d="M125.285 192.641C125.285 192.641 126.6 200.779 133.033 205.098C139.471 209.418 149.553 206.597 159.163 197.694C168.773 188.791 180.442 177.899 173.36 174.447C167.15 171.421 138.394 191.788 138.394 191.788L125.285 192.641Z" fill="white"/>
</mask>
<g mask="url(#mask17_9427_16511)">
<path d="M168.209 174.446C170.591 182.177 152.737 202.837 147.846 205.134C142.955 207.431 154.719 204.082 168.473 188.698C182.227 173.314 171.118 174.139 171.118 174.139L168.209 174.446Z" fill="white"/>
</g>
<path d="M125.285 192.641C125.285 192.641 126.6 200.779 133.033 205.098C139.471 209.418 149.553 206.597 159.163 197.694C168.773 188.791 180.442 177.899 173.36 174.447C167.15 171.421 138.394 191.788 138.394 191.788L125.285 192.641Z" stroke="black" stroke-width="1.2" stroke-linecap="round" stroke-linejoin="round"/>
<path d="M138.394 191.787L134.975 193.813" stroke="black" stroke-width="1.2" stroke-linecap="round" stroke-linejoin="round"/>
<path d="M150.411 64.4883C138.397 74.9373 128.806 68.4561 128.806 68.4561" stroke="#B880FF" stroke-width="1.2" stroke-linecap="round" stroke-linejoin="round"/>
<path d="M203.334 154.453C202.279 161.513 197.597 159.26 197.597 159.26C197.597 159.26 199.483 164.239 198.67 168.251C198.084 171.138 198.765 169.877 198.765 169.877C198.765 169.877 200.648 167.093 201.575 163.847C202.502 160.605 203.33 154.453 203.33 154.453H203.334Z" fill="black"/>
<path d="M202.729 147.002C202.396 151.666 190.957 151.666 190.957 151.666L203.377 153.084L202.733 147.002H202.729Z" fill="black"/>
<path d="M201.37 140.037C202.725 145.786 190.466 144.738 190.466 144.738L202.725 145.786L201.37 140.037Z" fill="black"/>
<path d="M198.769 135.688C201.007 139.197 190.467 137.27 190.467 137.27L200.15 138.369L198.769 135.688Z" fill="black"/>
<path d="M177.83 163.455C171.43 170.9 164.161 172.57 164.161 172.57L161.292 177.318C161.292 177.318 166.974 174.138 171.118 174.138C174.379 174.138 174.302 173.017 175.533 169.822C176.995 166.034 177.83 163.451 177.83 163.451V163.455Z" fill="black"/>
<path d="M180.421 159.26C176.321 162.956 168.107 162.301 168.107 162.301L168.477 163.506L177.827 164.239L180.417 159.26H180.421Z" fill="black"/>
<path d="M183.63 152.809C181.824 157.048 170.854 157.443 170.854 157.443L181.065 158.198L183.476 154.967L183.63 152.809Z" fill="black"/>
<path d="M183.366 145.789C183.626 152.809 170.854 150.076 170.854 150.076L183.667 151.512L183.366 145.789Z" fill="black"/>
<path d="M136.687 191.9C127.483 195.403 128.128 199.88 128.128 199.88C128.128 199.88 126.458 197.004 125.926 195.095L125.399 193.19L136.69 191.9H136.687Z" fill="black"/>
</g>
<path d="M314.499 215.89V251.732C314.499 253.438 313.825 255.071 312.619 256.274L290.738 278.154C289.533 279.356 287.899 280.034 286.197 280.034H250.355C230.357 290.243 207.723 296 183.733 296C159.743 296 137.101 290.243 117.111 280.034H81.2652C79.5591 280.034 77.9295 279.36 76.7272 278.154L54.8431 256.274C53.6408 255.071 52.9632 253.438 52.9632 251.732V215.89C42.7544 195.897 37.0002 173.252 37.0002 149.269C37.0002 125.287 42.7544 102.639 52.9632 82.6485V46.7997C52.9632 45.1006 53.6408 43.4675 54.8431 42.2617L76.7272 20.3814C77.9295 19.1791 79.5626 18.5015 81.2652 18.5015M183.729 2.53516C207.716 2.53516 230.354 8.29278 250.351 18.5015H286.193C287.896 18.5015 289.529 19.1756 290.735 20.3814L312.615 42.2617C313.818 43.464 314.495 45.0971 314.495 46.7997V82.6485C324.704 102.639 330.465 125.28 330.465 149.266C330.465 173.252 324.704 195.897 314.499 215.887" stroke="white" stroke-width="2" stroke-linecap="round" stroke-linejoin="round"/>
</g>
<defs>
<clipPath id="clip0_9427_16511">
<rect width="368" height="297.99" fill="white"/>
</clipPath>
</defs>
</svg>
